<mxfile host="Electron" agent="Mozilla/5.0 (Windows NT 10.0; Win64; x64) AppleWebKit/537.36 (KHTML, like Gecko) draw.io/26.0.16 Chrome/132.0.6834.196 Electron/34.2.0 Safari/537.36" version="26.0.16">
  <diagram name="페이지-1" id="LI8SvpceRDAAzUcpmR5d">
    <mxGraphModel dx="2940" dy="3229" grid="1" gridSize="10" guides="1" tooltips="1" connect="1" arrows="1" fold="1" page="1" pageScale="1" pageWidth="827" pageHeight="1169" math="0" shadow="0">
      <root>
        <mxCell id="0" />
        <mxCell id="1" parent="0" />
        <mxCell id="-fRIatW9w6PtR3swFjdP-22" value="" style="rounded=0;whiteSpace=wrap;html=1;" parent="1" vertex="1">
          <mxGeometry x="-450" y="-60" width="1800" height="1330" as="geometry" />
        </mxCell>
        <mxCell id="-fRIatW9w6PtR3swFjdP-2" value="&lt;div style=&quot;line-height: 100%;&quot;&gt;stopwatch DataPath&lt;/div&gt;" style="rounded=0;whiteSpace=wrap;html=1;labelPosition=center;verticalLabelPosition=top;align=center;verticalAlign=bottom;" parent="1" vertex="1">
          <mxGeometry x="220" y="300" width="160" height="200" as="geometry" />
        </mxCell>
        <mxCell id="-fRIatW9w6PtR3swFjdP-3" value="stopwatch CU" style="rounded=0;whiteSpace=wrap;html=1;labelPosition=center;verticalLabelPosition=top;align=center;verticalAlign=bottom;" parent="1" vertex="1">
          <mxGeometry x="-40" y="300" width="160" height="200" as="geometry" />
        </mxCell>
        <mxCell id="-fRIatW9w6PtR3swFjdP-4" value="fnd_controller" style="rounded=0;whiteSpace=wrap;html=1;labelPosition=center;verticalLabelPosition=top;align=center;verticalAlign=bottom;" parent="1" vertex="1">
          <mxGeometry x="700" y="300" width="520" height="600" as="geometry" />
        </mxCell>
        <mxCell id="-fRIatW9w6PtR3swFjdP-10" value="btn_db" style="rounded=0;whiteSpace=wrap;html=1;" parent="1" vertex="1">
          <mxGeometry x="-250" y="420" width="100" height="80" as="geometry" />
        </mxCell>
        <mxCell id="-fRIatW9w6PtR3swFjdP-11" value="btn_db" style="rounded=0;whiteSpace=wrap;html=1;" parent="1" vertex="1">
          <mxGeometry x="-250" y="300" width="100" height="80" as="geometry" />
        </mxCell>
        <mxCell id="uRA4H3G0nckh5KFxll-0-1" value="" style="rounded=0;whiteSpace=wrap;html=1;" vertex="1" parent="1">
          <mxGeometry x="740" y="340" width="50" height="70" as="geometry" />
        </mxCell>
        <mxCell id="uRA4H3G0nckh5KFxll-0-2" value="" style="rounded=0;whiteSpace=wrap;html=1;" vertex="1" parent="1">
          <mxGeometry x="740" y="490" width="50" height="70" as="geometry" />
        </mxCell>
        <mxCell id="uRA4H3G0nckh5KFxll-0-3" value="" style="rounded=0;whiteSpace=wrap;html=1;" vertex="1" parent="1">
          <mxGeometry x="740" y="640" width="50" height="70" as="geometry" />
        </mxCell>
        <mxCell id="uRA4H3G0nckh5KFxll-0-4" value="" style="rounded=0;whiteSpace=wrap;html=1;" vertex="1" parent="1">
          <mxGeometry x="740" y="790" width="50" height="70" as="geometry" />
        </mxCell>
        <mxCell id="uRA4H3G0nckh5KFxll-0-5" value="&lt;div style=&quot;line-height: 100%;&quot;&gt;stopwatch DataPath&lt;/div&gt;" style="rounded=0;whiteSpace=wrap;html=1;labelPosition=center;verticalLabelPosition=top;align=center;verticalAlign=bottom;" vertex="1" parent="1">
          <mxGeometry x="220" y="700" width="160" height="200" as="geometry" />
        </mxCell>
        <mxCell id="uRA4H3G0nckh5KFxll-0-9" value="stopwatch CU" style="rounded=0;whiteSpace=wrap;html=1;labelPosition=center;verticalLabelPosition=top;align=center;verticalAlign=bottom;" vertex="1" parent="1">
          <mxGeometry x="-40" y="700" width="160" height="200" as="geometry" />
        </mxCell>
        <mxCell id="uRA4H3G0nckh5KFxll-0-14" value="Mux" style="shadow=0;dashed=0;align=center;html=1;strokeWidth=1;shape=mxgraph.electrical.abstract.mux2;whiteSpace=wrap;" vertex="1" parent="1">
          <mxGeometry x="460" y="465" width="170" height="255" as="geometry" />
        </mxCell>
      </root>
    </mxGraphModel>
  </diagram>
</mxfile>
